<svg width="32" height="32" viewBox="0 0 32 32" fill="none" xmlns="http://www.w3.org/2000/svg">
<path fill-rule="evenodd" clip-rule="evenodd" d="M29.8378 8L15.9814 0L2.125 8V24L15.9814 32L29.8378 24V8ZM27.529 8.1426L16.0152 1.50403L4.50146 8.1426L16.0152 14.7812L27.529 8.1426ZM15.1696 16.4024L15.1774 29.6929L3.67129 23.041L3.66357 9.75049L15.1696 16.4024ZM16.8374 29.6929L28.3435 23.041L28.3512 9.75049L16.8451 16.4024L16.8374 29.6929Z" fill="#242424"/>
<path d="M16.0152 1.50403L27.529 8.1426L16.0152 14.7812L4.50146 8.1426L16.0152 1.50403Z" fill="#242424" fill-opacity="0.5"/>
<path d="M15.1696 16.4024L15.1774 29.6929L3.67129 23.041L3.66357 9.75049L15.1696 16.4024Z" fill="#242424" fill-opacity="0.5"/>
<path d="M28.3435 23.041L16.8374 29.6929L16.8451 16.4024L28.3512 9.75049L28.3435 23.041Z" fill="#242424" fill-opacity="0.5"/>
<path d="M25.3572 17.0591C25.4512 16.8712 25.3938 16.6241 25.2327 16.5232L24.2551 15.8722C24.0988 15.7616 23.8846 15.8278 23.7906 16.0158L23.3459 16.8987L24.9125 17.9421L25.3572 17.0591ZM20.4236 22.7433L20.7546 24.1686L21.9902 23.7867L24.6568 18.4529L23.0903 17.4095L20.4236 22.7433Z" fill="#242424"/>
<path d="M15.5694 7.74115L13.3102 9.56349L10.4141 7.8003L12.6733 5.97795L15.5694 7.74115ZM14.2806 7.75593L12.8325 6.87434L11.7029 7.78551L13.151 8.66711L14.2806 7.75593ZM19.1791 5.34192L18.6286 8.60425L14.6463 6.17987L19.1791 5.34192ZM18.089 6.2212L16.5072 6.51331L17.8973 7.35964L18.089 6.2212ZM18.0638 9.05984C18.9688 9.61084 19.128 10.5072 18.422 11.0767C17.716 11.6462 16.4272 11.661 15.5221 11.11C14.6171 10.559 14.4579 9.6626 15.1639 9.09312C15.8699 8.52363 17.1587 8.50884 18.0638 9.05984ZM17.499 9.51543C17.2589 9.36929 16.9543 9.28915 16.6522 9.29261C16.3501 9.29608 16.0751 9.38288 15.8879 9.53391C15.7007 9.68495 15.6164 9.88785 15.6538 10.098C15.6911 10.3081 15.8469 10.5083 16.0869 10.6544C16.327 10.8005 16.6316 10.8807 16.9337 10.8772C17.2358 10.8737 17.5108 10.7869 17.698 10.6359C17.8852 10.4849 17.9695 10.282 17.9321 10.0718C17.8948 9.86171 17.739 9.66156 17.499 9.51543Z" fill="#242424"/>
<path d="M6.29506 21.8321L6.6718 22.1081L7.12242 18.9196L6.09613 20.847C5.92141 21.1832 6.00496 21.6237 6.29506 21.8321ZM12.3687 21.6634L11.4671 17.1546C11.4119 16.8646 11.2144 16.6596 10.9829 16.6076C10.9044 16.5925 10.8208 16.5908 10.7368 16.6145L8.35887 17.2614C8.1169 17.3271 7.94106 17.5616 7.89759 17.8252C7.88209 17.9129 7.88272 18.0182 7.89693 18.1153L8.81059 22.6264C8.85925 22.9188 9.05977 23.1244 9.29483 23.1734C9.37335 23.1886 9.45437 23.1861 9.53486 23.1654L11.9098 22.5179C12.2388 22.4291 12.4451 22.0446 12.3687 21.6634ZM8.45471 18.2956C8.37461 18.2801 8.30305 18.2281 8.25578 18.1509C8.2085 18.0738 8.18937 17.9778 8.20261 17.8842C8.21584 17.7905 8.26035 17.7068 8.32635 17.6516C8.39234 17.5963 8.47442 17.5739 8.55451 17.5894C8.72061 17.6215 8.83406 17.8066 8.80661 18.0008C8.77916 18.195 8.62081 18.3277 8.45471 18.2956ZM7.30177 22.0629C7.2753 22.2502 7.31355 22.4421 7.40811 22.5964C7.50266 22.7507 7.64578 22.8548 7.80597 22.8858L8.24387 22.9704L7.61816 19.8243L7.30177 22.0629Z" fill="#242424"/>
</svg>
