<svg width="512" height="512" viewBox="0 0 512 512" fill="none" xmlns="http://www.w3.org/2000/svg">
<path d="M255.702 0L477.405 128V384L255.702 512L34 384V128L255.702 0Z" fill="#FAFAFA"/>
<path d="M256.243 24.0648L440.464 130.282L256.243 236.499L72.0227 130.282L256.243 24.0648Z" fill="#729FCF"/>
<path d="M242.717 262.437L242.84 475.086L58.7433 368.655L58.6199 156.006L242.717 262.437Z" fill="#E40000"/>
<path d="M453.492 368.655L269.395 475.086L269.518 262.437L453.615 156.006L453.492 368.655Z" fill="#7FE719"/>
<path d="M405.715 272.946C407.22 269.939 406.302 265.986 403.724 264.372L388.083 253.954C385.582 252.186 382.155 253.245 380.65 256.252L373.535 270.379L398.6 287.073L405.715 272.946ZM326.778 363.892L332.075 386.697L351.843 380.587L394.51 295.246L369.445 278.552L326.778 363.892Z" fill="#489200"/>
<path d="M249.108 123.859L212.961 153.017L166.622 124.806L202.77 95.6483L249.108 123.859ZM228.487 124.096L205.317 109.99L187.244 124.569L210.413 138.675L228.487 124.096ZM306.862 85.4717L298.054 137.669L234.339 98.8788L306.862 85.4717ZM289.421 99.5402L264.112 104.214L286.355 117.755L289.421 99.5402ZM289.017 144.958C303.498 153.774 306.046 168.117 294.75 177.228C283.454 186.34 262.832 186.577 248.352 177.761C233.871 168.945 231.323 154.603 242.619 145.491C253.915 136.379 274.537 136.142 289.017 144.958ZM279.981 152.248C276.14 149.91 271.267 148.627 266.433 148.683C261.598 148.738 257.2 150.127 254.204 152.544C251.208 154.96 249.86 158.207 250.458 161.569C251.055 164.931 253.548 168.133 257.388 170.471C261.229 172.809 266.102 174.092 270.936 174.036C275.771 173.981 280.169 172.592 283.165 170.176C286.161 167.759 287.509 164.513 286.911 161.15C286.314 157.788 283.821 154.586 279.981 152.248Z" fill="#355980"/>
<path d="M100.723 349.314L106.75 353.729L113.96 302.714L97.5398 333.552C94.7443 338.931 96.0811 345.98 100.723 349.314ZM197.901 346.615L183.476 274.474C182.593 269.834 179.433 266.554 175.728 265.722C174.472 265.479 173.135 265.453 171.791 265.832L133.744 276.183C129.872 277.234 127.059 280.985 126.363 285.204C126.115 286.607 126.125 288.292 126.353 289.845L140.971 362.023C141.75 366.7 144.958 369.99 148.719 370.775C149.975 371.017 151.272 370.978 152.559 370.646L190.558 360.286C195.822 358.865 199.124 352.713 197.901 346.615ZM135.277 292.729C133.995 292.482 132.851 291.649 132.094 290.415C131.338 289.18 131.032 287.645 131.243 286.146C131.455 284.648 132.167 283.31 133.223 282.425C134.279 281.541 135.592 281.183 136.874 281.431C139.531 281.944 141.347 284.906 140.907 288.014C140.468 291.121 137.935 293.243 135.277 292.729ZM116.83 353.006C116.407 356.003 117.019 359.074 118.531 361.543C120.044 364.012 122.334 365.677 124.897 366.172L131.904 367.526L121.892 317.189L116.83 353.006Z" fill="#9F0000"/>
</svg>
