<svg width="128" height="128" viewBox="0 0 128 128" fill="none" xmlns="http://www.w3.org/2000/svg">
<path d="M64 0L119.426 32V96L64 128L8.57438 96V32L64 0Z" fill="#FAFAFA"/>
<path d="M64.1352 6.01624L110.19 32.5705L64.1352 59.1248L18.0801 32.5705L64.1352 6.01624Z" fill="#729FCF"/>
<path d="M60.7535 65.6094L60.7844 118.771L14.7601 92.1637L14.7292 39.0016L60.7535 65.6094Z" fill="#E40000"/>
<path d="M113.447 92.1637L67.4231 118.771L67.454 65.6094L113.478 39.0016L113.447 92.1637Z" fill="#7FE719"/>
<path d="M101.503 68.2365C101.879 67.4847 101.65 66.4965 101.005 66.0929L97.095 63.4886C96.4697 63.0464 95.6131 63.3112 95.2368 64.063L93.4581 67.5947L99.7244 71.7682L101.503 68.2365ZM81.7688 90.9731L83.093 96.6743L88.0351 95.1466L98.7018 73.8115L92.4355 69.638L81.7688 90.9731Z" fill="#489200"/>
<path d="M62.3514 30.9648L53.3146 38.2542L41.73 31.2015L50.7668 23.9121L62.3514 30.9648ZM57.1961 31.024L51.4038 27.4976L46.8853 31.1423L52.6777 34.6687L57.1961 31.024ZM76.7899 21.3679L74.588 34.4173L58.6591 24.7197L76.7899 21.3679ZM72.4297 24.8851L66.1024 26.0535L71.663 29.4388L72.4297 24.8851ZM72.3287 36.2396C75.9489 38.4436 76.5859 42.0291 73.7619 44.3071C70.9379 46.585 65.7825 46.6442 62.1623 44.4402C58.5421 42.2362 57.9052 38.6506 60.7292 36.3727C63.5532 34.0948 68.7085 34.0356 72.3287 36.2396ZM70.0695 38.062C69.1094 37.4774 67.8911 37.1568 66.6825 37.1707C65.474 37.1846 64.3743 37.5318 63.6253 38.1359C62.8764 38.74 62.5395 39.5517 62.6888 40.3922C62.8381 41.2327 63.4614 42.0333 64.4215 42.6178C65.3817 43.2024 66.6 43.523 67.8085 43.5091C69.017 43.4952 70.1168 43.148 70.8657 42.5439C71.6147 41.9397 71.9516 41.1281 71.8023 40.2876C71.653 39.4471 71.0297 38.6465 70.0695 38.062Z" fill="#355980"/>
<path d="M25.255 87.3285L26.7619 88.4322L28.5644 75.6786L24.4592 83.3879C23.7603 84.7328 24.0946 86.495 25.255 87.3285ZM49.5496 86.6537L45.9432 68.6184C45.7224 67.4585 44.9324 66.6385 44.0062 66.4305C43.6922 66.3698 43.358 66.3633 43.022 66.458L33.5102 69.0457C32.5423 69.3085 31.8389 70.2463 31.6651 71.3009C31.6031 71.6517 31.6056 72.0729 31.6624 72.4611L35.3171 90.5058C35.5117 91.6751 36.3138 92.4975 37.254 92.6937C37.5681 92.7543 37.8922 92.7444 38.2141 92.6615L47.7138 90.0715C49.0298 89.7163 49.8553 88.1782 49.5496 86.6537ZM33.8935 73.1824C33.5731 73.1205 33.2869 72.9123 33.0978 72.6037C32.9087 72.295 32.8322 71.9112 32.8851 71.5366C32.9381 71.162 33.1161 70.8274 33.3801 70.6063C33.6441 70.3852 33.9724 70.2957 34.2928 70.3576C34.9572 70.486 35.4109 71.2266 35.3011 72.0034C35.1914 72.7802 34.5579 73.3107 33.8935 73.1824ZM29.2818 88.2516C29.1759 89.0008 29.3289 89.7684 29.7071 90.3857C30.0854 91.003 30.6578 91.4193 31.2986 91.5431L33.0502 91.8815L30.5473 79.2972L29.2818 88.2516Z" fill="#9F0000"/>
</svg>
